<svg width="100%" height="100%" viewBox="0 0 164 58" version="1.1" xmlns="http://www.w3.org/2000/svg" xmlns:xlink="http://www.w3.org/1999/xlink"> 
  <g id="logo" stroke="none" stroke-width="1" fill="none" fill-rule="evenodd">
    <g transform="translate(-71.000000, -161.000000)">
      <g transform="translate(0.000000, 120.000000)">
        <g transform="translate(60.000000, 30.000000)">
          <g transform="translate(11.000000, 11.000000)">
            <path class="logo-d" d="M38.499764,0.000101863354 L38.499764,38.4993565 L38.499764,57.7494932 C54.446472,57.7494932 67.3749689,44.8209963 67.3749689,28.8742882 C67.3749689,12.9275801 54.446472,0.000101863354 38.499764,0.000101863354" fill="#FF7864"></path>
            <g class="logo-5">
              <path d="M19.2507478,19.2507478 L19.2507478,48.1239155 L19.2507478,57.7489839 C29.8822261,57.7489839 38.4998658,49.1303255 38.4998658,38.4998658 C38.4998658,27.8683876 29.8822261,19.2507478 19.2507478,19.2507478" fill="#EE4E4E"></path>
              <path d="M9.62537391,38.4987453 C4.30912547,38.4987453 0.000305590062,42.8075652 0.000305590062,48.1238137 C0.000305590062,53.4400621 4.30912547,57.748882 9.62537391,57.748882 C14.9416224,57.748882 19.2504422,53.4400621 19.2504422,48.1238137 C19.2504422,42.8075652 14.9416224,38.4987453 9.62537391,38.4987453" fill="#EE4E4E"></path>
              <polygon fill="#EE4E4E" points="0.000101863354 0.000101863354 0.000101863354 38.4993565 38.4993565 0.000101863354"></polygon>
            </g>
            <g class="logo-i">
              <polygon fill="#CA697E" points="67.3746634 19.2507478 86.6248 0.000611180124 67.3746634 0.000611180124"></polygon>
              <polygon fill="#CA697E" points="67.3746634 19.2511553 67.3746634 28.8741863 67.3746634 57.7493913 86.6248 57.7493913 86.6248 38.4992547 86.6248 19.2511553"></polygon>
            </g>            
            <g class="logo-a">
              <path d="M105.874835,0.000101863354 L86.6257168,0.000101863354 L86.6257168,19.2512571 C97.2561764,19.2512571 105.874835,10.6325988 105.874835,0.000101863354" fill="#7E559B"></path>
              <path d="M125.123953,38.499764 L125.123953,19.2516646 L125.123953,19.250646 C125.123953,8.6191677 116.506313,0.00050931677 105.874835,0.00050931677 L105.874835,19.250646 C95.2443752,19.250646 86.6257168,27.8682857 86.6257168,38.499764 C86.6257168,49.1312422 95.2443752,57.748882 105.874835,57.748882 L105.874835,19.2516646 C105.875853,29.8811056 114.491456,38.4987453 125.120897,38.499764 C114.491456,38.5018012 105.874835,47.119441 105.874835,57.748882 L125.123953,57.748882" fill="#4A3584"></path>
              <path d="M86.6248,38.4987453 L86.6248,38.4977267 C86.6248,27.8662484 95.2434584,19.2475901 105.873918,19.2475901 L105.873918,38.4987453 L105.873918,57.748882 C95.2434584,57.748882 86.6248,49.1312422 86.6248,38.499764 L86.6248,38.4987453 Z" fill="#7E559B"></path>
            </g>
            <g class="logo-s">
              <path d="M163.622596,19.2502385 L163.622596,0.000101863354 L144.373478,0.000101863354 C144.373478,10.6315801 152.991118,19.2502385 163.622596,19.2502385" fill="#161F48"></path>
              <path d="M125.123953,57.7493913 L144.375108,57.7493913 C144.375108,47.117913 135.75645,38.5002733 125.123953,38.5002733" fill="#23255A"></path>
              <path d="M163.622596,38.499764 L163.622596,38.4987453 C163.621578,27.8672671 155.003938,19.2496273 144.373478,19.2496273 L144.373478,38.5007826 L144.373478,57.7499006 C155.003938,57.7499006 163.621578,49.1322609 163.622596,38.5007826 L163.622596,38.499764 Z" fill="#161F48"></path>
              <path d="M125.124971,19.2507478 L125.124971,19.2517665 C125.12599,29.8832447 133.74363,38.5019031 144.374089,38.5019031 L144.374089,19.2507478 L144.374089,0.000611180124 C133.74363,0.000611180124 125.12599,8.61926957 125.124971,19.2507478" fill="#23255A"></path>
            </g>            
          </g>
        </g>
      </g>
    </g>
  </g>
</svg>